<svg width="219.8" height="89.1" viewBox="0 0 219.8 89.1" xmlns="http://www.w3.org/2000/svg"><g id="svgGroup" stroke-linecap="round" fill-rule="evenodd" font-size="9pt" stroke="#000" stroke-width="0" fill="#ffffff" style="stroke:#000;stroke-width:0;fill:#ffffff"><path d="M 91.7 71.4 L 96.5 63.4 Q 100.1 66.4 104.6 68.3 A 23.348 23.348 0 0 0 109.97 69.81 A 32.118 32.118 0 0 0 115.1 70.2 A 27.981 27.981 0 0 0 119.647 69.854 Q 122.07 69.454 124.031 68.593 A 13.701 13.701 0 0 0 126.5 67.2 Q 130.548 64.308 130.695 59.466 A 12.116 12.116 0 0 0 130.7 59.1 A 11.94 11.94 0 0 0 130.363 56.207 A 9.816 9.816 0 0 0 129.5 53.95 A 8.097 8.097 0 0 0 128.3 52.294 Q 127.03 50.913 124.884 49.571 A 25.81 25.81 0 0 0 124.85 49.55 Q 121.734 47.608 115.965 45.38 A 118.584 118.584 0 0 0 114.7 44.9 Q 107.5 42.1 103.2 39.25 A 21.931 21.931 0 0 1 100.111 36.802 Q 98.394 35.153 97.338 33.287 A 13.303 13.303 0 0 1 97.05 32.75 Q 95.2 29.1 95.2 24.1 Q 95.2 19.1 97.95 15.05 Q 100.7 11 106.05 8.55 A 25.558 25.558 0 0 1 111.95 6.715 Q 115.193 6.1 119 6.1 Q 125.2 6.1 130.15 7.35 Q 135.1 8.6 139.8 10.9 L 136.3 19 A 31.496 31.496 0 0 0 132.174 16.981 A 41.686 41.686 0 0 0 128.35 15.65 Q 123.8 14.3 118.8 14.3 A 27.187 27.187 0 0 0 114.77 14.58 Q 112.638 14.9 110.9 15.587 A 12.616 12.616 0 0 0 108.4 16.9 A 9.902 9.902 0 0 0 106.237 18.865 A 7.359 7.359 0 0 0 104.6 23.6 A 10.464 10.464 0 0 0 104.892 26.122 A 8.562 8.562 0 0 0 105.7 28.2 Q 106.756 30.119 109.791 31.947 A 23.503 23.503 0 0 0 110.05 32.1 A 33.003 33.003 0 0 0 112.266 33.272 Q 114.535 34.375 117.746 35.623 A 130.016 130.016 0 0 0 119.8 36.4 A 81.228 81.228 0 0 1 124.778 38.429 Q 129.164 40.4 132.15 42.5 A 26.044 26.044 0 0 1 135.19 44.977 Q 137.413 47.106 138.6 49.45 A 17.579 17.579 0 0 1 140.341 55.313 A 22.155 22.155 0 0 1 140.5 58 A 21.71 21.71 0 0 1 139.833 63.501 A 17.105 17.105 0 0 1 137.25 69.1 Q 134 73.7 128.25 76.1 A 30.521 30.521 0 0 1 120.84 78.104 A 40.027 40.027 0 0 1 115.1 78.5 Q 107.8 78.5 101.8 76.55 A 38.206 38.206 0 0 1 96.433 74.368 A 28.433 28.433 0 0 1 91.7 71.4 Z M 83.2 9.7 L 80.3 17.7 Q 77.2 16.2 73.95 15.3 Q 71.157 14.527 67.515 14.418 A 40.705 40.705 0 0 0 66.3 14.4 A 21.173 21.173 0 0 0 58.395 15.855 A 19.981 19.981 0 0 0 54.85 17.7 A 21.167 21.167 0 0 0 48.484 24.281 A 26.978 26.978 0 0 0 46.9 27.2 Q 44 33.4 44 42.2 Q 44 50.6 46.85 56.9 A 25.677 25.677 0 0 0 50.436 62.728 A 21.423 21.423 0 0 0 54.75 66.7 A 19.703 19.703 0 0 0 65.895 70.197 A 23.894 23.894 0 0 0 66.3 70.2 A 33.715 33.715 0 0 0 70.271 69.978 Q 72.747 69.684 74.8 69 Q 78.4 67.8 81.8 65.9 L 84.7 73.8 A 37.561 37.561 0 0 1 80.205 75.844 A 47.894 47.894 0 0 1 76.25 77.15 A 33.592 33.592 0 0 1 71.285 78.141 Q 68.803 78.455 66.006 78.494 A 57.414 57.414 0 0 1 65.2 78.5 A 32.384 32.384 0 0 1 55.875 77.199 A 27.961 27.961 0 0 1 49.1 74.15 A 28.6 28.6 0 0 1 39.223 63.705 A 34.916 34.916 0 0 1 38.2 61.75 A 37.611 37.611 0 0 1 35.101 52.033 Q 34.325 47.767 34.301 42.914 A 62.816 62.816 0 0 1 34.3 42.6 Q 34.3 31.9 38.25 23.65 Q 42.2 15.4 49.45 10.75 A 29.371 29.371 0 0 1 62.13 6.339 A 37.292 37.292 0 0 1 66.4 6.1 A 45.639 45.639 0 0 1 71.458 6.368 A 35.2 35.2 0 0 1 75.5 7.05 A 38.224 38.224 0 0 1 82.975 9.594 A 35.605 35.605 0 0 1 83.2 9.7 Z M 191.2 89.1 L 191.2 83.4 A 21.303 21.303 0 0 0 193.832 82.605 Q 195.844 81.844 197.25 80.75 Q 199.377 79.096 200.387 75.878 A 15.282 15.282 0 0 0 200.5 75.5 A 21.186 21.186 0 0 0 201.049 72.923 Q 201.47 70.193 201.498 66.439 A 72.312 72.312 0 0 0 201.5 65.9 A 82.959 82.959 0 0 1 201.597 61.747 Q 201.798 57.745 202.418 55.036 A 20.307 20.307 0 0 1 202.6 54.3 A 15.314 15.314 0 0 1 203.546 51.683 Q 204.579 49.514 206.2 48.25 A 13.349 13.349 0 0 1 208.713 46.726 Q 210.538 45.863 212.9 45.3 Q 209.561 44.505 207.297 43.11 A 12.11 12.11 0 0 1 206.2 42.35 Q 204.052 40.674 202.937 37.374 A 17.638 17.638 0 0 1 202.6 36.25 Q 201.606 32.501 201.51 26.1 A 93.354 93.354 0 0 1 201.5 24.7 Q 201.5 18.6 200.5 15.1 A 12.893 12.893 0 0 0 199.574 12.721 Q 198.836 11.291 197.781 10.303 A 7.633 7.633 0 0 0 197.25 9.85 Q 195 8.1 191.2 7.2 L 191.2 1.5 Q 197.7 2.1 201.9 4.5 A 14.115 14.115 0 0 1 207.438 10.33 A 18.143 18.143 0 0 1 208.15 11.85 A 23.078 23.078 0 0 1 209.379 15.937 Q 210.2 19.848 210.2 25.1 Q 210.2 31.2 211 34.75 Q 211.592 37.379 212.898 38.966 A 6.484 6.484 0 0 0 213.9 39.95 A 8.776 8.776 0 0 0 216.019 41.156 Q 217.633 41.815 219.8 42.1 L 219.8 48.5 A 17.55 17.55 0 0 0 217.401 48.976 Q 216.209 49.307 215.25 49.795 A 8.205 8.205 0 0 0 213.9 50.65 A 7.069 7.069 0 0 0 212.08 52.843 Q 211.563 53.784 211.216 54.967 A 14.206 14.206 0 0 0 211 55.8 Q 210.277 58.962 210.207 64.326 A 90.153 90.153 0 0 0 210.2 65.5 A 53.658 53.658 0 0 1 209.969 70.648 Q 209.511 75.38 208.15 78.7 A 16.334 16.334 0 0 1 205.708 82.875 A 13.585 13.585 0 0 1 201.9 86.1 Q 198.346 88.131 193.145 88.873 A 39.449 39.449 0 0 1 191.2 89.1 Z M 28.6 83.4 L 28.6 89.1 A 34.552 34.552 0 0 1 23.841 88.336 Q 21.34 87.742 19.277 86.781 A 19.046 19.046 0 0 1 17.95 86.1 A 14.04 14.04 0 0 1 12.344 80.199 A 18.102 18.102 0 0 1 11.65 78.7 A 23.74 23.74 0 0 1 10.401 74.5 Q 9.95 72.32 9.753 69.745 A 55.737 55.737 0 0 1 9.6 65.5 A 77.857 77.857 0 0 0 9.523 61.91 Q 9.37 58.603 8.912 56.323 A 20.09 20.09 0 0 0 8.8 55.8 A 12.402 12.402 0 0 0 8.098 53.615 Q 7.279 51.734 5.9 50.65 A 8.776 8.776 0 0 0 3.781 49.444 Q 2.167 48.785 0 48.5 L 0 42.1 A 17.55 17.55 0 0 0 2.399 41.624 Q 3.591 41.293 4.55 40.805 A 8.205 8.205 0 0 0 5.9 39.95 Q 7.672 38.558 8.518 35.813 A 14.208 14.208 0 0 0 8.8 34.75 Q 9.6 31.2 9.6 25.1 A 54.842 54.842 0 0 1 9.821 20.014 Q 10.273 15.176 11.65 11.85 Q 13.7 6.9 17.95 4.5 Q 21.636 2.419 26.938 1.691 A 39.011 39.011 0 0 1 28.6 1.5 L 28.6 7.2 Q 24.9 8.1 22.6 9.85 A 8.36 8.36 0 0 0 20.375 12.458 Q 19.783 13.514 19.381 14.826 A 14.985 14.985 0 0 0 19.3 15.1 A 21.186 21.186 0 0 0 18.751 17.677 Q 18.33 20.407 18.302 24.161 A 72.312 72.312 0 0 0 18.3 24.7 A 80.646 80.646 0 0 1 18.195 28.958 Q 17.985 32.914 17.355 35.627 A 20.901 20.901 0 0 1 17.2 36.25 A 15.6 15.6 0 0 1 16.278 38.843 Q 15.63 40.235 14.746 41.257 A 8.11 8.11 0 0 1 13.6 42.35 A 13.349 13.349 0 0 1 11.087 43.874 Q 9.263 44.738 6.9 45.3 Q 10.239 46.095 12.503 47.49 A 12.11 12.11 0 0 1 13.6 48.25 A 8.884 8.884 0 0 1 15.799 50.821 Q 16.665 52.306 17.2 54.3 Q 18.194 58.004 18.29 64.482 A 95.693 95.693 0 0 1 18.3 65.9 Q 18.3 72 19.3 75.5 A 12.575 12.575 0 0 0 20.233 77.879 Q 21.163 79.656 22.6 80.75 Q 24.9 82.5 28.6 83.4 Z M 185.8 2.5 L 157.6 84.4 L 150.2 81.9 L 178.4 0 L 185.8 2.5 Z" vector-effect="non-scaling-stroke"/></g></svg>